<svg xmlns="http://www.w3.org/2000/svg" width="153.308" height="153.282" viewBox="0 0 153.308 153.282">
  <path id="Icon_ionic-ios-person" data-name="Icon ionic-ios-person" d="M153.708,150.011c-2.8-12.362-18.778-18.388-24.3-20.332-6.065-2.138-14.7-2.644-20.255-3.888-3.188-.7-7.814-2.449-9.369-4.315s-.622-19.166-.622-19.166a57.664,57.664,0,0,0,4.432-8.436c1.555-3.926,3.266-14.734,3.266-14.734s3.188,0,4.315-5.6c1.205-6.1,3.11-8.475,2.877-13.023-.233-4.471-2.683-4.354-2.683-4.354s2.372-6.492,2.644-19.943C114.364,20.245,101.846,4.5,79.18,4.5,56.2,4.5,43.957,20.245,44.307,36.222c.311,13.451,2.6,19.943,2.6,19.943s-2.449-.117-2.683,4.354C44,65.068,45.9,67.439,47.107,73.543c1.089,5.6,4.315,5.6,4.315,5.6s1.711,10.807,3.266,14.734a57.663,57.663,0,0,0,4.432,8.436s.933,17.3-.622,19.166-6.181,3.615-9.369,4.315c-5.559,1.244-14.19,1.749-20.255,3.888-5.521,1.944-21.5,7.969-24.3,20.332a3.108,3.108,0,0,0,3.071,3.771h143.03A3.1,3.1,0,0,0,153.708,150.011Z" transform="translate(-2.488 -2.5)" fill="rgba(5,132,253,0.3)" stroke="#0584fd" stroke-width="4"/>
</svg>
